<svg width="52" height="48" fill="none" xmlns="http://www.w3.org/2000/svg"><path d="m33.853 25.415-5.413-2.872V12.052a2.28 2.28 0 0 0-.756-1.677 2.7 2.7 0 0 0-1.824-.695 2.7 2.7 0 0 0-1.824.695 2.28 2.28 0 0 0-.756 1.677v11.86c0 .416.12.825.346 1.186.226.36.552.66.944.868l6.703 3.558a2.8 2.8 0 0 0 1.959.238c.327-.081.634-.22.903-.41.27-.19.495-.426.664-.696.17-.27.28-.568.324-.877a2.188 2.188 0 0 0-.066-.924 2.302 2.302 0 0 0-.446-.83 2.527 2.527 0 0 0-.758-.61ZM25.86.192c-5.103 0-10.09 1.391-14.334 3.998-4.242 2.606-7.55 6.31-9.502 10.644C.071 19.17-.44 23.938.556 28.54c.995 4.6 3.453 8.827 7.06 12.145 3.609 3.317 8.206 5.576 13.21 6.491a27.91 27.91 0 0 0 14.907-1.35c4.715-1.795 8.744-4.835 11.579-8.736 2.835-3.9 4.348-8.486 4.348-13.178-.007-6.288-2.728-12.317-7.565-16.764C39.258 2.7 32.7.2 25.86.192Zm0 42.695c-4.082 0-8.073-1.113-11.467-3.198s-6.04-5.049-7.602-8.516A17.558 17.558 0 0 1 5.617 20.21c.796-3.681 2.762-7.063 5.648-9.716C14.152 7.84 17.83 6.033 21.833 5.3A22.327 22.327 0 0 1 33.76 6.38c3.771 1.436 6.995 3.868 9.263 6.988 2.268 3.12 3.478 6.79 3.478 10.542-.006 5.031-2.183 9.854-6.052 13.412-3.87 3.557-9.116 5.558-14.588 5.564Z" fill="#fff"/></svg>