<svg width="37" height="32" viewBox="0 0 37 32" fill="none" xmlns="http://www.w3.org/2000/svg">
<path d="M34.2546 14.4023C33.783 14.4023 33.3308 14.5709 32.9973 14.871C32.6639 15.171 32.4766 15.578 32.4766 16.0023C32.4978 18.9992 31.357 21.9088 29.2507 24.2302C27.1445 26.5516 24.2046 28.1394 20.9374 28.7201C17.6703 29.3008 14.2804 28.838 11.3515 27.4116C8.42271 25.9851 6.13833 23.6842 4.89182 20.9051C3.64531 18.1261 3.51472 15.0428 4.52253 12.1864C5.53033 9.33007 7.61346 6.87935 10.4131 5.25638C13.2128 3.63342 16.5537 2.9398 19.8605 3.295C23.1673 3.65019 26.233 5.03197 28.5295 7.20233H24.2623C23.7908 7.20233 23.3385 7.3709 23.0051 7.67096C22.6717 7.97102 22.4844 8.37799 22.4844 8.80233C22.4844 9.22668 22.6717 9.63364 23.0051 9.9337C23.3385 10.2338 23.7908 10.4023 24.2623 10.4023H32.3166C32.7881 10.4023 33.2404 10.2338 33.5738 9.9337C33.9072 9.63364 34.0946 9.22668 34.0946 8.80233V1.60234C34.0946 1.178 33.9072 0.77103 33.5738 0.470972C33.2404 0.170914 32.7881 0.00234327 32.3166 0.00234327C31.845 0.00234327 31.3928 0.170914 31.0594 0.470972C30.7259 0.77103 30.5386 1.178 30.5386 1.60234V4.43434C27.5777 1.88723 23.7303 0.338267 19.6467 0.0492697C15.5632 -0.239727 11.494 0.748974 8.12702 2.84824C4.76005 4.94751 2.30181 8.02858 1.16785 11.5706C0.0338908 15.1127 0.293764 18.8984 1.90354 22.288C3.51332 25.6775 6.37426 28.4629 10.0028 30.1733C13.6312 31.8837 17.8047 32.4141 21.8177 31.6751C25.8306 30.936 29.437 28.9727 32.027 26.117C34.617 23.2613 36.032 19.6884 36.0326 16.0023C36.0326 15.578 35.8452 15.171 35.5118 14.871C35.1784 14.5709 34.7261 14.4023 34.2546 14.4023Z" fill="white"/>
</svg>
