<svg width="43" height="38" viewBox="0 0 43 38" fill="none" xmlns="http://www.w3.org/2000/svg">
<path d="M35.0643 35.5201C33.6315 36.422 24.4379 30.7049 22.6771 30.6923C20.9163 30.6799 11.6191 36.2655 10.203 35.3433C8.78689 34.4211 12.1161 24.9494 11.5855 23.4699C11.055 21.9905 2.15354 15.9247 2.71113 14.4529C3.26885 12.9811 14.5201 12.8444 15.9529 11.9425C17.3857 11.0407 21.1815 1.70618 22.9425 1.71864C24.7031 1.73121 28.3275 11.1184 29.7436 12.0406C31.1597 12.9626 42.4071 13.2595 42.9378 14.7389C43.4683 16.2184 34.4571 22.1568 33.8994 23.6286C33.3418 25.1004 36.4972 34.6182 35.0643 35.5201Z" fill="#A7B2B9"/>
<path d="M23 8L25.6942 15.9463H34.4127L27.3593 20.8574L30.0534 28.8037L23 23.8926L15.9466 28.8037L18.6407 20.8574L11.5873 15.9463H20.3058L23 8Z" fill="#D9D9D9" fill-opacity="0.48"/>
</svg>
