<svg width="34" height="66" viewBox="0 0 34 66" fill="none" xmlns="http://www.w3.org/2000/svg">
<path d="M29.9732 30.6863C29.9454 30.8704 29.8774 31.0464 29.7739 31.202C29.6705 31.3576 29.534 31.4892 29.374 31.5875C29.2141 31.6858 29.0344 31.7486 28.8474 31.7715C28.6605 31.7944 28.4707 31.7769 28.2912 31.7202L25.7212 30.9041L23.5895 32.5442C23.3977 32.6887 23.169 32.7777 22.9289 32.8012C22.6889 32.8246 22.447 32.7816 22.2303 32.6769C22.0136 32.5722 21.8306 32.41 21.7019 32.2085C21.5731 32.0069 21.5036 31.7739 21.5012 31.5355L21.4866 28.8688L19.2698 27.3433C19.0725 27.2075 18.9171 27.0204 18.821 26.8027C18.7248 26.585 18.6916 26.3451 18.725 26.1099C18.7585 25.8746 18.8573 25.6531 19.0105 25.47C19.1636 25.2869 19.3652 25.1494 19.5927 25.0727L22.1547 24.2409L22.9125 21.6814C22.9814 21.4529 23.1131 21.2479 23.2931 21.0892C23.4731 20.9305 23.6943 20.8244 23.9318 20.7829C24.1693 20.7413 24.4138 20.7658 24.638 20.8538C24.8622 20.9417 25.0572 21.0895 25.2012 21.2807L26.7943 23.4282L29.4925 23.3439C29.7339 23.3374 29.9725 23.3976 30.1813 23.5176C30.3901 23.6376 30.5609 23.8128 30.6746 24.0234C30.7883 24.234 30.8404 24.4718 30.825 24.7101C30.8096 24.9483 30.7274 25.1776 30.5875 25.3723L28.9931 27.566L29.9096 30.0686C29.9815 30.2663 30.0034 30.4784 29.9732 30.6863ZM26.9234 27.2786C26.9531 27.0739 27.0328 26.8794 27.1554 26.712L28.1098 25.3974L26.4666 25.4486C26.2562 25.4562 26.0471 25.4127 25.8576 25.322C25.668 25.2313 25.5038 25.0962 25.3793 24.9283L24.4133 23.6264L23.9501 25.1789C23.8947 25.3833 23.7888 25.5709 23.6417 25.7247C23.4947 25.8785 23.3112 25.9937 23.1079 26.0599L21.552 26.5624L22.9061 27.4791C23.0831 27.5981 23.2273 27.7589 23.3257 27.9468C23.4242 28.1347 23.4738 28.3438 23.47 28.5554L23.4822 30.1739L24.795 29.1087C24.9615 28.9813 25.157 28.8961 25.3645 28.8605C25.572 28.825 25.7851 28.8402 25.9853 28.9048L27.5406 29.4003L26.9898 27.8766C26.9201 27.6853 26.8973 27.4803 26.9234 27.2786ZM24.5082 8.32983C24.4706 8.5749 24.3752 8.8078 24.2298 9.00973L20.8294 13.6773L22.7963 19.0903C22.8958 19.3683 22.9136 19.6684 22.8477 19.956C22.7818 20.2436 22.6348 20.5068 22.4238 20.7153C22.2165 20.9211 21.9549 21.0652 21.6688 21.1313C21.3827 21.1974 21.0836 21.1829 20.8054 21.0893L15.2902 19.3252L14.4403 19.9757C14.2288 20.1322 13.9633 20.1996 13.7017 20.1633C13.4401 20.1269 13.2036 19.9898 13.044 19.7817C12.8857 19.5727 12.8174 19.3103 12.8542 19.0517C12.8909 18.7932 13.0297 18.5595 13.2403 18.4018L14.2722 17.6069C14.4789 17.4487 14.7225 17.3444 14.9806 17.3035C15.2388 17.2626 15.5032 17.2865 15.7495 17.373L20.6505 18.9121L18.8929 14.087C18.8049 13.8472 18.7777 13.5899 18.8136 13.3374C18.8495 13.0849 18.9475 12.845 19.0988 12.6385L22.1341 8.47912L16.9414 8.63613C16.6822 8.64425 16.425 8.58878 16.1928 8.47467C15.9605 8.36056 15.7605 8.19136 15.6106 7.9822L12.5578 3.88542L11.046 8.83526C10.973 9.08123 10.8402 9.30582 10.6592 9.48943C10.4782 9.67304 10.2545 9.8101 10.0076 9.88865L5.13365 11.4972L9.41969 14.378C9.6205 14.5254 9.78428 14.7166 9.89833 14.9367C10.0124 15.1567 10.0737 15.3998 10.0774 15.647L10.0934 20.7891L10.4775 20.5031C10.6889 20.3466 10.9545 20.2791 11.2161 20.3155C11.4777 20.3518 11.7141 20.489 11.8737 20.697C11.9536 20.8009 12.0119 20.9194 12.0452 21.0456C12.0785 21.1719 12.0862 21.3034 12.0678 21.4326C12.0495 21.5618 12.0054 21.6861 11.9382 21.7984C11.8709 21.9107 11.7819 22.0087 11.6761 22.0868L10.6356 22.8704C10.4062 23.036 10.1361 23.1378 9.85336 23.1652C9.57064 23.1926 9.28565 23.1447 9.02802 23.0264C8.76533 22.9003 8.54342 22.7044 8.38721 22.4606C8.23101 22.2167 8.14671 21.9346 8.1438 21.6461L8.12351 15.8946L3.30347 12.6502C3.06085 12.4859 2.86945 12.2579 2.7508 11.9919C2.63216 11.726 2.59098 11.4325 2.63192 11.1447C2.67285 10.8568 2.79426 10.586 2.98249 10.3626C3.17072 10.1393 3.41829 9.97229 3.69733 9.88045L9.22421 8.08319L10.8549 2.581C10.9331 2.29926 11.0911 2.04548 11.3104 1.8496C11.5297 1.65372 11.8011 1.52389 12.0926 1.47544C12.3863 1.4212 12.6896 1.45039 12.9672 1.55961C13.2448 1.66883 13.4853 1.8536 13.661 2.09249L17.1039 6.71254L22.9074 6.52061C23.1392 6.5135 23.3698 6.5566 23.583 6.64687C23.7961 6.73715 23.9867 6.87242 24.1414 7.0432C24.2961 7.21398 24.4111 7.41614 24.4784 7.63549C24.5456 7.85485 24.5635 8.08609 24.5308 8.313L24.5082 8.32983Z" fill="#2C5C7E"/>
<path d="M27.4171 43.9921C27.554 43.9741 27.6927 43.9819 27.8236 44.0149C27.9544 44.0479 28.0742 44.1054 28.1748 44.1833C28.2753 44.2612 28.3542 44.3578 28.4058 44.4662C28.4575 44.5747 28.4808 44.6924 28.4741 44.8114L28.3758 46.5158L29.9514 47.492C30.091 47.5804 30.1978 47.7015 30.2599 47.8419C30.322 47.9822 30.3369 48.1363 30.303 48.2868C30.269 48.4372 30.1876 48.5782 30.0678 48.694C29.9479 48.8097 29.7944 48.8956 29.6244 48.9421L27.7199 49.4546L27.0475 51.0798C26.9877 51.2245 26.8832 51.3535 26.7457 51.4526C26.6081 51.5518 26.4429 51.6171 26.2683 51.6413C26.0937 51.6656 25.9166 51.6478 25.7568 51.59C25.5969 51.5322 25.4605 51.4366 25.3626 51.3138L24.2839 49.9255L22.3103 49.9517C22.1339 49.9533 21.9624 49.9126 21.8149 49.8339C21.6674 49.7553 21.5498 49.642 21.4752 49.5066C21.4006 49.3712 21.372 49.219 21.3925 49.0672C21.4131 48.9153 21.482 48.7698 21.5915 48.6468L22.8265 47.2803L22.2567 45.6686C22.2065 45.5242 22.2044 45.369 22.2509 45.2203C22.2973 45.0717 22.3903 44.9356 22.5194 44.8272C22.6486 44.7188 22.8088 44.6425 22.9821 44.6068C23.1554 44.5711 23.335 44.5774 23.5006 44.625L25.3706 45.1725L26.9874 44.1471C27.1151 44.0663 27.2627 44.0131 27.4171 43.9921ZM25.5559 46.4753C25.4039 46.496 25.2498 46.4847 25.1068 46.4423L23.9864 46.1149L24.3334 47.0964C24.3785 47.2219 24.3869 47.3562 24.3579 47.4877C24.3288 47.6192 24.2631 47.7437 24.1666 47.8505L23.418 48.6791L24.6157 48.6653C24.7724 48.6601 24.9265 48.6886 25.0643 48.7483C25.2021 48.8079 25.3191 48.8968 25.4049 49.007L26.0581 49.8506L26.4579 48.8607C26.5097 48.7315 26.5974 48.6141 26.7132 48.5193C26.829 48.4244 26.9692 48.355 27.1212 48.3173L28.2765 48.0043L27.2667 47.4136C27.1442 47.3372 27.0463 47.2353 26.9817 47.1169C26.9171 46.9985 26.8877 46.867 26.8961 46.7341L26.9567 45.7023L25.9711 46.3223C25.8474 46.4005 25.7051 46.4529 25.5559 46.4753ZM12.4601 51.5106C12.6425 51.487 12.8271 51.5005 12.999 51.5501L16.9793 52.7198L20.4792 50.5111C20.6592 50.3986 20.8705 50.3312 21.0886 50.3167C21.3067 50.3021 21.5227 50.341 21.7117 50.4289C21.898 50.5151 22.0505 50.6457 22.1518 50.8058C22.2531 50.9659 22.2992 51.1491 22.2848 51.3346L22.0647 54.9946L22.6903 55.3844C22.8422 55.4824 22.9406 55.6298 22.964 55.7945C22.9874 55.9592 22.934 56.1277 22.8153 56.2633C22.6958 56.3983 22.521 56.489 22.3291 56.5156C22.1372 56.5423 21.9439 56.5027 21.7913 56.4055L21.028 55.9331C20.8758 55.8383 20.7552 55.7111 20.6772 55.5631C20.5992 55.4151 20.5664 55.2511 20.5817 55.0861L20.7569 51.8392L17.638 53.8106C17.4831 53.9089 17.3042 53.9739 17.1169 53.9999C16.9295 54.026 16.7394 54.0122 16.5632 53.9599L13.0152 52.9145L14.1081 56.0171C14.1629 56.1719 14.1718 56.3376 14.1341 56.4992C14.0963 56.6608 14.0131 56.8134 13.8918 56.9434L11.5383 59.5585L15.3639 59.5357C15.5536 59.5333 15.7393 59.571 15.9048 59.6455C16.0703 59.72 16.2106 59.8291 16.3134 59.9632L18.3842 62.5994L19.6351 59.47C19.7026 59.321 19.8084 59.1861 19.9443 59.0758C20.0801 58.9654 20.2424 58.8825 20.4185 58.8336L24.093 57.8529L23.8159 57.6752C23.6641 57.5772 23.5657 57.4298 23.5423 57.2651C23.5188 57.1004 23.5723 56.9319 23.691 56.7963C23.7502 56.7285 23.8239 56.671 23.9079 56.6271C23.9919 56.5831 24.0845 56.5537 24.1804 56.5403C24.2762 56.527 24.3735 56.5301 24.4665 56.5495C24.5595 56.5688 24.6464 56.6041 24.7222 56.6531L25.4791 57.1327C25.6409 57.2399 25.7647 57.3836 25.8377 57.549C25.9107 57.7143 25.9302 57.8953 25.8943 58.073C25.8537 58.2553 25.7555 58.4262 25.6106 58.5664C25.4657 58.7067 25.2799 58.8108 25.0741 58.8671L20.9645 59.9655L19.5544 63.4857C19.4827 63.663 19.3558 63.8216 19.188 63.9433C19.0202 64.0651 18.8181 64.1454 18.6045 64.1751C18.3909 64.2047 18.1743 64.1826 17.979 64.1113C17.7837 64.0399 17.6176 63.9221 17.4992 63.7711L15.1701 60.7767L10.927 60.8321C10.7108 60.8381 10.4994 60.7907 10.3179 60.6954C10.1364 60.6001 9.99231 60.4609 9.90261 60.2942C9.80836 60.1273 9.77196 59.9389 9.79765 59.7508C9.82334 59.5627 9.91005 59.3827 10.0477 59.2317L12.7017 56.2824L11.4685 52.8179C11.4196 52.6794 11.4069 52.5321 11.4312 52.3865C11.4555 52.2409 11.5163 52.1003 11.6092 51.9748C11.7021 51.8492 11.825 51.7417 11.9692 51.6597C12.1134 51.5777 12.2754 51.5232 12.4438 51.5001L12.4601 51.5106Z" fill="#2C5C7E"/>
</svg>
