<svg width="38" height="71" viewBox="0 0 38 71" fill="none" xmlns="http://www.w3.org/2000/svg">
<g filter="url(#filter0_d_8_3)">
<path d="M7.1361 31.5603C6.94771 31.5586 6.76192 31.5136 6.59161 31.4284C6.4213 31.3431 6.27052 31.2198 6.14973 31.0668C6.02893 30.9138 5.941 30.7349 5.89203 30.5424C5.84305 30.3499 5.83421 30.1485 5.8661 29.952L6.3261 27.1374L4.3861 25.1482C4.21456 24.9687 4.09357 24.7424 4.03668 24.4944C3.97979 24.2463 3.98923 23.9865 4.06394 23.7438C4.13866 23.5011 4.27571 23.2852 4.45975 23.1203C4.6438 22.9553 4.86759 22.8478 5.1061 22.8097L7.7761 22.3971L8.9961 19.847C9.10461 19.6201 9.27048 19.4294 9.47526 19.2962C9.68004 19.163 9.91571 19.0924 10.1561 19.0924C10.3965 19.0924 10.6322 19.163 10.8369 19.2962C11.0417 19.4294 11.2076 19.6201 11.3161 19.847L12.5061 22.4077L15.1761 22.8203C15.4146 22.8584 15.6384 22.9659 15.8224 23.1309C16.0065 23.2958 16.1435 23.5117 16.2182 23.7544C16.293 23.997 16.3024 24.2569 16.2455 24.5049C16.1886 24.7529 16.0676 24.9793 15.8961 25.1587L13.9661 27.148L14.4261 29.9626C14.4662 30.2146 14.4391 30.4735 14.3479 30.7102C14.2567 30.9469 14.105 31.152 13.9097 31.3025C13.7145 31.453 13.4835 31.543 13.2426 31.5624C13.0018 31.5818 12.7606 31.5298 12.5461 31.4122L10.1261 30.0684L7.7461 31.4016C7.55808 31.5065 7.34863 31.561 7.1361 31.5603ZM10.1261 27.8569C10.3353 27.8576 10.5412 27.912 10.7261 28.0156L12.1761 28.8198L11.8961 27.1057C11.8592 26.8863 11.8737 26.6607 11.9382 26.4486C12.0027 26.2365 12.1152 26.0443 12.2661 25.8888L13.4361 24.6826L11.8161 24.4287C11.6036 24.4011 11.4009 24.318 11.2263 24.1868C11.0517 24.0557 10.9108 23.8806 10.8161 23.6774L10.0961 22.122L9.3661 23.6774C9.27142 23.8806 9.13044 24.0557 8.95587 24.1868C8.78129 24.318 8.57861 24.4011 8.3661 24.4287L6.7461 24.6826L7.9961 25.8994C8.14695 26.0549 8.25954 26.2471 8.32403 26.4592C8.38853 26.6713 8.40297 26.8969 8.3661 27.1163L8.0861 28.8198L9.5361 28.0156C9.71812 27.9141 9.92033 27.8597 10.1261 27.8569ZM28.7761 22.5029C28.5253 22.5 28.2787 22.4347 28.0561 22.3124L22.9061 19.4449L17.7561 22.3124C17.4914 22.4581 17.1932 22.5215 16.8959 22.4953C16.5986 22.469 16.3143 22.3543 16.0761 22.1643C15.8411 21.9777 15.6602 21.7251 15.5542 21.4352C15.4481 21.1452 15.421 20.8296 15.4761 20.5242L16.4761 14.4824L15.7061 13.6888C15.5198 13.4906 15.4153 13.2224 15.4153 12.9428C15.4153 12.6633 15.5198 12.3951 15.7061 12.1969C15.8935 11.9998 16.1469 11.8892 16.4111 11.8892C16.6753 11.8892 16.9287 11.9998 17.1161 12.1969L18.0561 13.1598C18.2434 13.3528 18.3818 13.5925 18.4587 13.8569C18.5356 14.1212 18.5485 14.4018 18.4961 14.6729L17.6361 20.0375L22.2261 17.4769C22.454 17.349 22.7081 17.2822 22.9661 17.2822C23.2241 17.2822 23.4782 17.349 23.7061 17.4769L28.2961 20.0375L27.4161 14.62C27.3719 14.3495 27.3917 14.0718 27.4737 13.8114C27.5557 13.5511 27.6974 13.3163 27.8861 13.128L31.5661 9.31881L26.3961 8.47233C26.1395 8.43246 25.896 8.32677 25.6868 8.16447C25.4776 8.00217 25.3092 7.78819 25.1961 7.54119L22.9061 2.67387L20.6161 7.59409C20.4963 7.82648 20.3275 8.02657 20.1229 8.17886C19.9183 8.33116 19.6833 8.43157 19.4361 8.47233L14.2861 9.25533L14.6261 9.61509C14.8123 9.81334 14.9169 10.0815 14.9169 10.3611C14.9169 10.6406 14.8123 10.9088 14.6261 11.107C14.5331 11.2062 14.4225 11.2849 14.3007 11.3386C14.1788 11.3924 14.0481 11.42 13.9161 11.42C13.7841 11.42 13.6534 11.3924 13.5315 11.3386C13.4097 11.2849 13.2991 11.2062 13.2061 11.107L12.2761 10.1336C12.0783 9.91783 11.9387 9.64996 11.8719 9.35781C11.805 9.06566 11.8134 8.7599 11.8961 8.47233C11.9858 8.17829 12.1513 7.91657 12.3739 7.71656C12.5965 7.51656 12.8673 7.3862 13.1561 7.34015L18.9161 6.46191L21.4961 0.92799C21.627 0.649285 21.8287 0.414759 22.0787 0.250811C22.3287 0.0868627 22.617 0 22.9111 0C23.2052 0 23.4935 0.0868627 23.7435 0.250811C23.9935 0.414759 24.1952 0.649285 24.3261 0.92799L26.8961 6.45133L32.6361 7.34015C32.9293 7.38007 33.2055 7.50787 33.4323 7.70847C33.6591 7.90907 33.827 8.17411 33.9161 8.47233C34.0113 8.77199 34.0243 9.09409 33.9535 9.40124C33.8827 9.70839 33.731 9.988 33.5161 10.2076L29.3661 14.5036L30.3661 20.556C30.4055 20.7978 30.3944 21.0458 30.3336 21.2826C30.2728 21.5194 30.1638 21.7393 30.0142 21.9268C29.8646 22.1144 29.6781 22.265 29.4676 22.3681C29.2572 22.4713 29.028 22.5245 28.7961 22.524L28.7761 22.5029Z" fill="#2C5C7E"/>
<path d="M8.32369 44.3574C8.30549 44.2125 8.31337 44.0658 8.34678 43.9273C8.38019 43.7889 8.43833 43.6621 8.51718 43.5557C8.59603 43.4493 8.69371 43.3659 8.80344 43.3112C8.91318 43.2565 9.03235 43.2319 9.15271 43.239L10.8773 43.343L11.865 41.6759C11.9544 41.5282 12.077 41.4151 12.219 41.3494C12.361 41.2837 12.5169 41.2679 12.6692 41.3039C12.8214 41.3398 12.9641 41.4259 13.0812 41.5527C13.1983 41.6795 13.2852 41.842 13.3323 42.0219L13.8508 44.037L15.4952 44.7485C15.6416 44.8118 15.7722 44.9223 15.8725 45.0679C15.9728 45.2134 16.0389 45.3883 16.0634 45.573C16.0879 45.7577 16.0699 45.9451 16.0114 46.1142C15.953 46.2834 15.8562 46.4278 15.732 46.5313L14.3272 47.6727L14.3538 49.761C14.3554 49.9476 14.3142 50.1291 14.2346 50.2852C14.1551 50.4412 14.0404 50.5657 13.9034 50.6446C13.7664 50.7235 13.6124 50.7538 13.4588 50.7321C13.3052 50.7103 13.1579 50.6374 13.0334 50.5215L11.6508 49.2148L10.0201 49.8177C9.87394 49.8709 9.71687 49.873 9.56649 49.8239C9.4161 49.7748 9.27836 49.6764 9.16871 49.5397C9.05906 49.403 8.98184 49.2335 8.94571 49.0501C8.90958 48.8667 8.91597 48.6768 8.96416 48.5015L9.51813 46.5228L8.48055 44.8121C8.39885 44.6769 8.345 44.5208 8.32369 44.3574ZM10.8363 46.3268C10.8572 46.4876 10.8458 46.6507 10.8029 46.8019L10.4716 47.9874L11.4647 47.6203C11.5917 47.5726 11.7276 47.5637 11.8607 47.5944C11.9937 47.6252 12.1197 47.6947 12.2278 47.7968L13.0662 48.589L13.0522 47.3216C13.0469 47.1558 13.0758 46.9927 13.1361 46.847C13.1965 46.7012 13.2865 46.5773 13.3979 46.4866L14.2515 45.7954L13.2499 45.3723C13.1191 45.3176 13.0004 45.2248 12.9044 45.1022C12.8084 44.9797 12.7382 44.8313 12.7001 44.6705L12.3833 43.4481L11.7856 44.5165C11.7084 44.6462 11.6053 44.7498 11.4855 44.8181C11.3656 44.8865 11.2326 44.9176 11.0981 44.9087L10.0541 44.8445L10.6814 45.8875C10.7606 46.0184 10.8136 46.1689 10.8363 46.3268ZM15.9311 60.1836C15.9072 59.9906 15.9209 59.7953 15.9711 59.6134L17.1546 55.4018L14.9198 51.6985C14.806 51.508 14.7378 51.2845 14.7231 51.0537C14.7083 50.8229 14.7477 50.5943 14.8366 50.3944C14.9239 50.1973 15.056 50.0359 15.218 49.9287C15.38 49.8215 15.5653 49.7728 15.753 49.788L19.4563 50.0209L19.8507 49.3589C19.9498 49.1982 20.099 49.0941 20.2656 49.0693C20.4323 49.0445 20.6028 49.1011 20.7399 49.2266C20.8765 49.3531 20.9683 49.5381 20.9953 49.7411C21.0223 49.9441 20.9822 50.1487 20.8839 50.3101L20.4059 51.1178C20.31 51.2788 20.1812 51.4065 20.0315 51.489C19.8817 51.5715 19.7158 51.6062 19.5489 51.59L16.2636 51.4047L18.2583 54.7048C18.3578 54.8687 18.4235 55.058 18.4499 55.2562C18.4762 55.4545 18.4623 55.6556 18.4093 55.8421L17.3516 59.5962L20.4909 58.4398C20.6475 58.3818 20.8151 58.3724 20.9787 58.4124C21.1422 58.4523 21.2966 58.5404 21.4281 58.6687L24.0742 61.1589L24.051 57.1111C24.0486 56.9103 24.0868 56.7138 24.1621 56.5387C24.2375 56.3636 24.3479 56.2152 24.4836 56.1064L27.151 53.9153L23.9846 52.5917C23.8338 52.5202 23.6973 52.4083 23.5857 52.2645C23.474 52.1208 23.3902 51.9491 23.3407 51.7628L22.3483 47.8747L22.1686 48.1679C22.0694 48.3286 21.9203 48.4327 21.7536 48.4574C21.587 48.4822 21.4165 48.4257 21.2793 48.3001C21.2107 48.2375 21.1525 48.1594 21.1081 48.0706C21.0636 47.9817 21.0338 47.8837 21.0203 47.7823C21.0068 47.6808 21.01 47.5779 21.0296 47.4795C21.0491 47.3811 21.0848 47.2892 21.1344 47.2089L21.6197 46.408C21.7281 46.2369 21.8735 46.1059 22.0408 46.0286C22.2081 45.9514 22.3912 45.9307 22.5711 45.9687C22.7555 46.0116 22.9284 46.1156 23.0703 46.2689C23.2123 46.4222 23.3176 46.6188 23.3745 46.8366L24.4859 51.185L28.0477 52.677C28.2272 52.7529 28.3876 52.8871 28.5108 53.0647C28.634 53.2423 28.7152 53.4561 28.7453 53.6821C28.7753 53.9081 28.7529 54.1373 28.6807 54.344C28.6085 54.5506 28.4893 54.7264 28.3366 54.8517L25.3067 57.3162L25.3628 61.8058C25.3689 62.0346 25.3209 62.2582 25.2245 62.4503C25.1281 62.6423 24.9872 62.7948 24.8186 62.8897C24.6497 62.9894 24.459 63.0279 24.2687 63.0008C24.0784 62.9736 23.8963 62.8818 23.7434 62.7361L20.7593 59.9279L17.2538 61.2328C17.1137 61.2845 16.9647 61.298 16.8174 61.2723C16.67 61.2465 16.5278 61.1823 16.4008 61.0839C16.2737 60.9856 16.1649 60.8556 16.082 60.703C15.999 60.5505 15.9439 60.3791 15.9205 60.2008L15.9311 60.1836Z" fill="#2C5C7E"/>
</g>
<defs>
<filter id="filter0_d_8_3" x="0" y="0" width="37.9985" height="71.0092" filterUnits="userSpaceOnUse" color-interpolation-filters="sRGB">
<feFlood flood-opacity="0" result="BackgroundImageFix"/>
<feColorMatrix in="SourceAlpha" type="matrix" values="0 0 0 0 0 0 0 0 0 0 0 0 0 0 0 0 0 0 127 0" result="hardAlpha"/>
<feOffset dy="4"/>
<feGaussianBlur stdDeviation="2"/>
<feComposite in2="hardAlpha" operator="out"/>
<feColorMatrix type="matrix" values="0 0 0 0 0 0 0 0 0 0 0 0 0 0 0 0 0 0 0.25 0"/>
<feBlend mode="normal" in2="BackgroundImageFix" result="effect1_dropShadow_8_3"/>
<feBlend mode="normal" in="SourceGraphic" in2="effect1_dropShadow_8_3" result="shape"/>
</filter>
</defs>
</svg>
