<svg width="58" height="57" fill="none" xmlns="http://www.w3.org/2000/svg"><path d="M54.625 25.693c-.763 0-1.494.3-2.033.832a2.825 2.825 0 0 0-.842 2.01 22.71 22.71 0 0 1-5.216 14.613 23.193 23.193 0 0 1-13.443 7.974 23.382 23.382 0 0 1-15.5-2.324A22.968 22.968 0 0 1 7.145 37.242a22.626 22.626 0 0 1-.597-15.484A22.91 22.91 0 0 1 16.073 9.45 23.36 23.36 0 0 1 31.35 5.966a23.243 23.243 0 0 1 14.017 6.94h-6.9c-.762 0-1.493.3-2.032.832a2.825 2.825 0 0 0-.843 2.01c0 .753.303 1.476.843 2.009.539.533 1.27.832 2.032.832h13.024c.763 0 1.494-.3 2.033-.832.54-.533.842-1.256.842-2.01V2.96c0-.754-.303-1.476-.842-2.01a2.892 2.892 0 0 0-2.033-.832c-.762 0-1.493.3-2.033.833a2.825 2.825 0 0 0-.842 2.01v5.029A28.907 28.907 0 0 0 31.004.202a29.002 29.002 0 0 0-18.627 4.97A28.431 28.431 0 0 0 1.124 20.665a28.11 28.11 0 0 0 1.19 19.034A28.548 28.548 0 0 0 15.41 53.703a29.05 29.05 0 0 0 19.104 2.667 28.809 28.809 0 0 0 16.509-9.871A28.213 28.213 0 0 0 57.5 28.535c0-.754-.303-1.477-.842-2.01a2.892 2.892 0 0 0-2.033-.832Z" fill="#fff"/></svg>