<svg width="535" height="503" viewBox="0 0 535 503" fill="none" xmlns="http://www.w3.org/2000/svg">
<g clip-path="url(#clip0_137_4)">
<path d="M521.446 181.08H468.009C466.297 175.715 464.427 172.18 462.405 167.995L500.047 132.436C505.616 127.2 505.619 118.627 500.053 113.388L414.401 32.7245C411.725 30.2055 408.094 28.7702 404.306 28.7702C400.52 28.7702 396.89 30.1761 394.212 32.695L356.41 67.9384C351.928 66.004 348.107 64.2072 342.4 62.5675V12.743C342.4 5.33553 336.726 0 328.846 0H207.58C199.7 0 192.6 5.33553 192.6 12.743V62.0596C188.32 63.7238 183.436 65.5521 178.784 67.5376L141.832 32.6724C136.263 27.441 127.326 27.443 121.755 32.6753L36.0028 113.298C30.4302 118.534 30.4501 127.026 36.0195 132.267L72.923 167.311C70.7705 171.72 68.7987 175.716 66.992 181.082H14.98C7.10024 181.08 0 186.416 0 193.823V307.836C0 315.242 7.10024 321.92 14.98 321.92H66.992C68.7956 325.944 70.7767 330.6 72.9241 335.003L35.9976 369.554C33.3215 372.07 31.8179 375.399 31.8189 378.959C31.82 382.52 33.3257 385.888 36.0038 388.403L121.847 469C127.417 474.232 136.442 474.222 142.01 468.99L178.777 434.127C183.429 436.111 188.318 437.935 192.598 439.601V488.917C192.598 496.323 199.698 503.001 207.578 503.001H328.844C336.724 503.001 342.398 496.323 342.398 488.917V439.091C348.104 437.451 351.93 435.639 356.413 433.703L394.032 469.262C396.707 471.781 400.515 473.491 404.302 473.491C404.302 473.491 404.303 473.491 404.305 473.491C408.09 473.491 411.72 471.783 414.396 469.266L500.096 388.521C502.771 386.005 504.274 382.51 504.272 378.951C504.271 375.392 502.767 371.939 500.09 369.424L462.412 334.338C464.43 330.16 466.297 325.944 468.008 321.92H521.446C529.326 321.92 535 315.242 535 307.836V193.823C535 186.416 529.326 181.08 521.446 181.08ZM506.466 295.093H457.851C451.639 295.093 446.141 298.537 444.257 304.104C441.137 313.323 437.172 322.176 432.472 330.751C429.629 335.936 430.679 342.174 435.069 346.299L469.829 378.917L404.31 440.532L369.757 407.994C365.355 403.849 358.597 402.866 353.072 405.57C343.913 410.057 333.932 413.837 324.112 416.815C318.218 418.602 313.867 423.757 313.867 429.579V476.174H221.134V430.013C221.134 424.154 217.446 418.972 211.499 417.217C201.498 414.262 191.883 410.48 182.572 405.972C177.061 403.307 170.437 404.288 166.05 408.408L131.885 440.529L66.2439 378.864L100.29 346.867C104.692 342.728 105.737 336.383 102.863 331.189C98.0043 322.41 93.927 313.518 90.7389 304.104C88.8539 298.538 83.3586 295.093 77.1466 295.093H28.5337V207.906H77.1487C83.3607 207.906 88.8591 203.793 90.7431 198.225C93.9333 188.803 98.0147 179.405 102.877 170.622C105.75 165.433 104.713 159.005 100.314 154.865L66.3087 122.831L131.934 61.145L166.146 93.2574C170.531 97.3757 177.244 98.3561 182.755 95.6889C192.076 91.1796 201.51 87.3943 211.499 84.4441C217.444 82.6885 221.134 77.5042 221.134 71.6451V26.827H313.867V72.0803C313.867 77.9031 318.218 83.0608 324.114 84.8469C333.934 87.8236 343.733 91.6059 352.887 96.0897C358.416 98.7982 365.258 97.8197 369.663 93.6729L404.264 61.143L469.768 122.778L435.048 155.433C430.661 159.559 429.619 165.876 432.462 171.062C437.164 179.642 441.135 189.002 444.256 198.224C446.139 203.79 451.641 207.906 457.853 207.906H506.467V295.093H506.466Z" fill="white"/>
<g clip-path="url(#clip1_137_4)">
<path d="M213.206 386.372C287.087 413.158 370.521 380.49 402.8 310.568C417.197 279.381 419.065 245.861 410.511 215.181C386.156 243.127 356.34 272.884 322.912 302.28C286.18 334.582 248.449 363.445 213.206 386.372Z" fill="white"/>
<path d="M158.111 351.802C196.522 329.003 240.36 296.477 282.19 259.691C314.982 230.856 344.897 200.853 368.7 172.929C372.575 168.387 376.373 163.786 380.094 159.127C377.754 156.459 375.315 153.872 372.78 151.371C359.805 138.572 344.14 127.863 326.13 120.13C323.331 118.928 320.515 117.826 317.684 116.799C243.802 90.0151 160.369 122.682 128.09 192.605C113.693 223.792 111.826 257.311 120.38 287.99C126.084 308.453 136.426 327.649 150.796 344.045C153.136 346.715 155.575 349.303 158.111 351.802Z" fill="white"/>
<path d="M355.814 119.402C365.263 124.696 366.611 126.378 374.779 133.346C391.516 123.916 406.901 116.587 419.517 112.056C423.62 110.584 427.09 109.524 429.989 108.763C429.422 110.178 428.754 111.735 427.967 113.439C419.666 131.422 402.753 155.802 380.344 182.089C356.098 210.534 325.677 241.048 292.37 270.339C248.041 309.322 201.39 343.661 161.01 367.034C142.377 377.818 125.211 386.146 111.37 391.117C107.267 392.589 103.798 393.649 100.899 394.41C101.465 392.996 102.133 391.439 102.921 389.733C108.727 377.156 118.751 361.446 131.916 344.145C125.538 335.671 123.66 333.729 119.099 324.205C101.338 341.914 85.9006 360.92 75.4513 377.936C63.7762 396.948 64.8901 413.116 73.4825 420.393C99.6007 442.511 206.716 384.863 312.731 291.633C383.864 229.081 436.44 166.392 455.439 125.236C464.756 105.052 465.999 90.0571 457.406 82.7795C442.456 70.118 407.996 85.3985 355.814 119.402Z" fill="white"/>
<path d="M252.216 178.461L260.557 183.406L258.331 174.116L265.667 167.89L255.975 167.051L252.166 158.292L248.401 167.034L238.712 167.832L246.08 174.089L243.899 183.37L252.216 178.461Z" fill="#0000FF"/>
<path fill-rule="evenodd" clip-rule="evenodd" d="M254.246 149.764L261.104 161.767C261.441 162.37 262.101 162.793 262.868 162.896L278.157 164.858C278.778 164.933 279.339 165.219 279.716 165.651C280.092 166.083 280.254 166.626 280.164 167.159C280.088 167.597 279.845 168.001 279.473 168.306L268.426 177.652C267.867 178.113 267.618 178.786 267.763 179.442L270.463 192.653C270.659 193.741 269.808 194.76 268.548 194.945C268.029 195.014 267.497 194.941 267.027 194.735L253.381 188.482C252.699 188.158 251.874 188.156 251.194 188.477L237.498 194.718C236.349 195.223 234.937 194.842 234.322 193.861C234.082 193.465 233.996 193.014 234.078 192.574L236.713 179.375C236.841 178.72 236.59 178.052 236.042 177.582L224.869 168.188C223.955 167.391 223.952 166.112 224.862 165.318C225.233 165.022 225.695 164.824 226.194 164.746L241.474 162.85C242.237 162.743 242.892 162.325 243.232 161.729L250.031 149.755C250.3 149.27 250.786 148.899 251.378 148.728C251.97 148.556 252.619 148.598 253.177 148.844C253.637 149.045 254.012 149.368 254.246 149.764Z" stroke="#0000CC" stroke-width="1.5" stroke-linecap="round" stroke-linejoin="round"/>
<g clip-path="url(#clip2_137_4)">
<path d="M296.604 206.025L301.969 209.509L300.549 202.943L305.285 198.529L299.043 197.95L296.604 191.761L294.165 197.95L287.923 198.529L292.658 202.943L291.239 209.509L296.604 206.025Z" fill="#0000FF"/>
<path fill-rule="evenodd" clip-rule="evenodd" d="M297.958 185.738L302.355 194.213C302.571 194.639 302.995 194.936 303.489 195.008L313.33 196.372C313.729 196.424 314.09 196.625 314.332 196.93C314.574 197.235 314.677 197.618 314.618 197.995C314.569 198.305 314.411 198.591 314.171 198.807L307.044 205.431C306.684 205.757 306.522 206.233 306.615 206.697L308.332 216.031C308.456 216.801 307.907 217.522 307.095 217.655C306.761 217.704 306.418 217.653 306.116 217.509L297.34 213.109C296.902 212.881 296.37 212.881 295.932 213.109L287.104 217.541C286.363 217.901 285.455 217.633 285.06 216.941C284.906 216.661 284.852 216.342 284.906 216.031L286.623 206.697C286.706 206.234 286.546 205.762 286.194 205.431L279.015 198.807C278.427 198.244 278.427 197.34 279.015 196.778C279.254 196.568 279.552 196.427 279.873 196.372L289.714 195.008C290.206 194.931 290.628 194.635 290.848 194.213L295.245 185.738C295.418 185.395 295.732 185.132 296.113 185.01C296.495 184.888 296.912 184.916 297.271 185.089C297.568 185.231 297.808 185.458 297.958 185.738Z" stroke="#0000CC" stroke-width="1.5" stroke-linecap="round" stroke-linejoin="round"/>
</g>
</g>
<g clip-path="url(#clip3_137_4)">
<path d="M255.257 224.872L260.175 227.885L258.874 222.206L263.215 218.388L257.494 217.887L255.257 212.535L253.021 217.887L247.3 218.388L251.641 222.206L250.34 227.885L255.257 224.872Z" fill="#0000FF"/>
<path fill-rule="evenodd" clip-rule="evenodd" d="M256.499 207.326L260.53 214.655C260.727 215.024 261.116 215.281 261.569 215.343L270.59 216.523C270.956 216.568 271.287 216.742 271.508 217.005C271.73 217.269 271.824 217.601 271.771 217.927C271.725 218.195 271.581 218.442 271.361 218.629L264.828 224.357C264.497 224.639 264.349 225.051 264.434 225.452L266.008 233.526C266.122 234.191 265.618 234.815 264.875 234.93C264.568 234.972 264.254 234.928 263.977 234.803L255.933 230.998C255.531 230.801 255.043 230.801 254.642 230.998L246.549 234.831C245.87 235.142 245.038 234.911 244.676 234.312C244.535 234.07 244.485 233.794 244.534 233.526L246.109 225.452C246.185 225.052 246.038 224.643 245.715 224.357L239.134 218.629C238.596 218.142 238.596 217.36 239.134 216.874C239.354 216.692 239.627 216.571 239.921 216.523L248.942 215.343C249.393 215.277 249.78 215.02 249.981 214.655L254.012 207.326C254.171 207.029 254.458 206.802 254.808 206.696C255.158 206.59 255.54 206.615 255.87 206.765C256.141 206.887 256.362 207.084 256.499 207.326Z" stroke="#0000CC" stroke-width="1.5" stroke-linecap="round" stroke-linejoin="round"/>
</g>
</g>
<defs>
<clipPath id="clip0_137_4">
<rect width="535" height="503" fill="white"/>
</clipPath>
<clipPath id="clip1_137_4">
<rect width="463.343" height="478.346" rx="2" transform="matrix(0.419129 -0.907927 0.918867 0.394568 -51.4189 367.547)" fill="white"/>
</clipPath>
<clipPath id="clip2_137_4">
<rect x="270.561" y="179.474" width="44.0732" height="43.6878" fill="white"/>
</clipPath>
<clipPath id="clip3_137_4">
<rect x="231.385" y="201.908" width="40.4005" height="37.784" fill="white"/>
</clipPath>
</defs>
</svg>
